<?xml version="1.0" encoding="UTF-8" standalone="no"?>
<!-- Created with Inkscape (http://www.inkscape.org/) -->

<svg
   xmlns:osb="http://www.openswatchbook.org/uri/2009/osb"
   xmlns:dc="http://purl.org/dc/elements/1.1/"
   xmlns:cc="http://creativecommons.org/ns#"
   xmlns:rdf="http://www.w3.org/1999/02/22-rdf-syntax-ns#"
   xmlns:svg="http://www.w3.org/2000/svg"
   xmlns="http://www.w3.org/2000/svg"
   xmlns:xlink="http://www.w3.org/1999/xlink"
   xmlns:sodipodi="http://sodipodi.sourceforge.net/DTD/sodipodi-0.dtd"
   xmlns:inkscape="http://www.inkscape.org/namespaces/inkscape"
   width="210mm"
   height="150mm"
   viewBox="0 0 210 150"
   version="1.1"
   id="svg8"
   inkscape:version="0.92.3 (2405546, 2018-03-11)"
   sodipodi:docname="logo.svg">
  <defs
     id="defs2">
    <linearGradient
       id="linearGradient6052"
       osb:paint="solid">
      <stop
         style="stop-color:#00971f;stop-opacity:0.26666668;"
         offset="0"
         id="stop6050" />
    </linearGradient>
    <inkscape:perspective
       sodipodi:type="inkscape:persp3d"
       inkscape:vp_x="0 : 148.49999 : 1"
       inkscape:vp_y="0 : 999.99996 : 0"
       inkscape:vp_z="210 : 148.49999 : 1"
       inkscape:persp3d-origin="105 : 98.999996 : 1"
       id="perspective3731" />
    <linearGradient
       inkscape:collect="always"
       xlink:href="#linearGradient6052"
       id="linearGradient6054"
       x1="19.654762"
       y1="62.654762"
       x2="114.90476"
       y2="62.654762"
       gradientUnits="userSpaceOnUse"
       gradientTransform="matrix(2.0896549,0,0,1.6118868,-32.124844,115.6811)" />
  </defs>
  <sodipodi:namedview
     id="base"
     pagecolor="#ffffff"
     bordercolor="#666666"
     borderopacity="1.0"
     inkscape:pageopacity="0.0"
     inkscape:pageshadow="2"
     inkscape:zoom="0.75633418"
     inkscape:cx="396.85039"
     inkscape:cy="561.25984"
     inkscape:document-units="mm"
     inkscape:current-layer="layer1"
     showgrid="false"
     inkscape:window-width="1920"
     inkscape:window-height="1018"
     inkscape:window-x="-8"
     inkscape:window-y="-8"
     inkscape:window-maximized="1"
     units="mm"
     width="4.5in"
     height="150mm"
     objecttolerance="20"
     inkscape:snap-path-mask="true" />
  <metadata
     id="metadata5">
    <rdf:RDF>
      <cc:Work
         rdf:about="">
        <dc:format>image/svg+xml</dc:format>
        <dc:type
           rdf:resource="http://purl.org/dc/dcmitype/StillImage" />
        <dc:title></dc:title>
      </cc:Work>
    </rdf:RDF>
  </metadata>
  <g
     inkscape:label="Capa 1"
     inkscape:groupmode="layer"
     id="layer1"
     transform="translate(0,-147)">
    <flowRoot
       xml:space="preserve"
       id="flowRoot3715"
       style="font-style:normal;font-weight:normal;font-size:40px;line-height:1.25;font-family:sans-serif;letter-spacing:0px;word-spacing:0px;fill:#000000;fill-opacity:1;stroke:none"
       transform="scale(0.26458333)"><flowRegion
         id="flowRegion3717"><rect
           id="rect3719"
           width="51.42857"
           height="131.42857"
           x="197.14285"
           y="239.66254" /></flowRegion><flowPara
         id="flowPara3721">jjgm</flowPara></flowRoot>    <path
       id="path3765"
       d="m 70.169459,186.58217 c 2.848465,-0.98617 5.804342,-1.63545 8.439068,-3.24407 0.795317,-0.64981 1.778187,-0.82169 2.660451,-1.232 0.726359,-0.33782 1.336371,-0.75306 2.100894,-1.01696 2.052395,-0.11673 2.505676,2.35542 2.782751,4.1533 0.229582,2.123 0.209265,4.26646 0.207554,6.40111 -0.0079,2.07014 -0.01695,4.14028 -0.02175,6.21043 -0.004,2.04981 -0.0042,4.09961 -0.0046,6.14941 0.141898,1.91994 -0.173682,3.77412 -0.49299,5.64559 -0.120716,2.13924 -1.10671,3.93854 -1.928747,5.81225 -0.725631,1.95808 -1.846424,3.65119 -3.051645,5.26664 -1.256903,1.534 -2.489001,3.09725 -3.897167,4.4628 -4.242804,3.58944 -8.55144,5.63507 -13.593784,8.94657 -3.684474,2.41974 14.923,-9.31292 11.126423,-7.1192 -15.255583,8.81495 -7.689745,6.44802 -13.292166,8.13881 -2.492262,1.06384 -5.112287,1.53636 -7.696245,2.2088 -2.417251,0.5889 -4.678224,1.67941 -7.123326,2.15633 -1.787016,0.32674 -3.528747,0.40191 -5.171339,-0.52487 -1.465545,-1.25822 -1.74822,-3.20384 -1.925119,-5.13179 -0.159566,-1.97002 -0.146855,-3.91187 0.31852,-5.82552 0.440332,-1.50264 1.375329,-2.64561 2.272916,-3.82064 3.916713,-4.13677 1.019699,-1.16204 12.876921,-8.39252 0.211209,-0.1288 1.369535,-0.19899 1.574471,-0.25348 0.472406,-0.12555 0.911533,-0.37546 1.375174,-0.53664 4.445904,-2.54399 1.277516,-0.74454 -10.411291,6.63047 -0.291626,0.18401 0.680465,-0.32449 0.804956,-0.67136 0,0 12.075947,-7.26948 12.075947,-7.26948 v 0 c 0.209466,0.66953 0.650991,1.88275 -0.12934,2.40703 -11.397472,7.65765 -7.934955,6.3396 -13.172837,8.23424 -0.721638,0.23709 -1.480267,0.35277 -2.188897,0.63383 -0.223947,0.0888 -0.85709,0.45561 -0.652503,0.32069 10.59367,-6.98631 15.050986,-9.1874 10.515266,-6.91919 -1.00091,0.85833 -1.882394,2.02811 -2.509607,3.23892 -0.851472,1.57261 -0.688615,3.41391 -0.620639,5.18551 0.07854,1.27699 0.0165,2.98101 1.170722,3.66641 1.553843,0.43805 3.126858,0.18966 4.679318,-0.17208 2.363536,-0.63494 4.635501,-1.63777 7.035709,-2.11572 2.60587,-0.63271 5.187026,-1.36083 7.682832,-2.4257 0.25341,-0.12649 0.999364,-0.5369 0.760234,-0.37956 -3.657443,2.40635 -14.727703,9.43691 -11.019384,7.1294 2.484846,-1.5462 28.582816,-18.48885 1.268895,-0.75972 -0.440027,0.28561 1.841598,-1.15661 1.246503,-0.98437 1.612153,-1.00763 2.801614,-2.6601 4.006702,-4.19377 1.332103,-1.34519 2.423348,-3.03097 3.246848,-4.80746 0.692976,-1.81504 1.877258,-3.44677 2.049764,-5.44775 0.262824,-1.8108 0.792531,-3.55803 0.61414,-5.41675 1.25e-4,-2.05089 1.47e-4,-4.1018 0.0034,-6.15269 0.0041,-2.07082 0.01167,-4.14163 0.02413,-6.21243 0.0085,-2.06284 0.03811,-4.13094 -0.119403,-6.1884 -0.158194,-1.36633 0.02725,-2.69186 -1.476529,-1.87147 -1.551343,0.76499 -3.133279,1.44555 -4.644258,2.31137 -2.816383,1.26928 -5.759697,2.18249 -8.733631,2.85998 0,0 10.956568,-9.0843 10.956568,-9.0843 z"
       inkscape:connector-curvature="0"
       style="stroke-width:0.3397083" />
    <path
       id="path3769"
       d="m 93.81137,198.29984 c -3.48752,2.22659 -13.915543,8.97228 -10.462568,6.67974 20.226448,-13.429 14.276642,-8.80178 2.631829,-1.82034 -0.475161,0.28487 0.861553,-0.72443 1.285353,-1.09667 1.055168,-0.92676 1.424143,-1.29564 2.440705,-2.26106 1.634408,-1.63419 3.520653,-2.90223 5.251753,-4.39649 4.3669,-3.8007 13.092008,-13.60913 14.378598,-5.57214 0.0839,1.71118 0.45808,3.37757 0.65299,5.07512 0.19726,1.99422 0.2203,4.00247 0.24016,6.00653 0.0127,2.05316 0.008,4.10639 0.006,6.15957 -0.002,2.25816 -0.0131,4.51621 -0.0121,6.77441 0.0724,2.09283 0.0141,4.14745 -0.34168,6.20355 -0.26473,1.96665 -0.49798,3.88451 -1.1111,5.76059 -0.63304,1.979 -1.17103,3.99424 -1.76111,5.98961 -0.83158,2.0356 -1.65006,4.07897 -2.34653,6.17779 -0.52547,1.94628 -1.51579,3.60879 -2.50108,5.28752 -0.98463,1.60283 -2.348752,2.82545 -3.599158,4.15241 -4.773172,5.08774 -10.125492,8.4941 -16.356191,8.77559 -1.689819,0.12148 -3.413621,-0.15104 -4.958636,-0.9367 -1.530103,-1.16858 -1.879302,-3.08474 -2.088593,-5.0088 -0.146851,-2.04283 -0.116301,-4.09496 -0.107304,-6.14244 -0.110343,-1.87534 0.276638,-3.59289 1.022354,-5.25124 0.4515,-0.84176 1.052381,-1.54616 1.607567,-2.29806 0,0 12.539779,-6.14687 12.539779,-6.14687 v 0 c -0.423572,0.93417 -1.014095,1.54922 -1.586589,2.35044 -1.042045,1.1755 -1.458827,2.80049 -1.40566,4.43666 -0.01083,1.99645 -0.0406,3.99503 0.04951,5.98979 0.09782,1.31051 0.09194,2.92698 1.325108,3.54378 1.516202,0.46005 3.034342,0.64308 4.603561,0.41256 0.809919,-0.0979 1.615555,-0.19068 2.390093,-0.4942 0.233847,-0.0916 0.896744,-0.46753 0.683392,-0.32686 -10.26463,6.76828 -14.96456,9.25417 -10.405398,6.81954 1.348085,-1.1264 2.54166,-2.51143 3.743893,-3.82017 1.078637,-1.50127 1.9927,-3.10697 2.680743,-4.88099 0.60414,-2.14289 1.408786,-4.22606 2.303759,-6.23544 0.799217,-1.89331 1.135684,-4.00903 1.779808,-5.97311 0.636304,-1.81679 1.10962,-3.54955 1.189876,-5.52248 0.359405,-1.98527 0.66611,-3.90907 0.49129,-5.95524 0.0022,-2.25549 -0.0076,-4.51088 -0.0054,-6.76636 0.0022,-2.04843 0.0065,-4.09686 -3.14e-4,-6.14529 -0.01233,-1.95131 -0.02249,-3.90603 -0.181871,-5.85084 -0.169531,-1.6966 -0.568117,-3.35199 -0.665882,-5.04891 -0.01136,-0.19938 -0.02044,-0.39893 -0.03407,-0.59815 -0.0043,-0.0653 -0.0943,-0.15847 -0.04304,-0.19053 23.595613,-14.76119 13.680003,-9.9077 10.541313,-6.3633 -1.82786,1.37983 -3.56762,2.92011 -5.39092,4.31598 -1.16133,1.14209 -2.363564,2.55598 -3.684439,3.46634 -4.244924,2.92563 -8.722672,5.44005 -12.839811,8.58455 -0.826223,0.63103 32.99804,-21.39303 -2.613894,1.65156 0,0 10.663497,-9.51095 10.663497,-9.51095 z"
       inkscape:connector-curvature="0"
       style="stroke-width:0.3397083" />
    <ellipse
       id="path3775"
       cx="108.46665"
       cy="216.67346"
       rx="99.519806"
       ry="67.018044"
       style="fill:url(#linearGradient6054);fill-opacity:1;stroke-width:0.48558697" />
    <path
       id="path6056"
       d="m 122.3413,212.84126 c 4.37736,-1.61074 11.58073,-6.62052 -7.44866,5.20114 -0.45768,0.28432 0.89113,-0.61617 1.31716,-0.95619 0.78235,-0.62438 1.35421,-1.22149 2.06907,-1.9256 1.29517,-1.30275 2.78606,-2.37163 3.88407,-3.89595 3.83192,-4.19211 10.49683,-13.59475 14.74677,-8.53366 0.87772,1.59016 0.84291,3.50508 0.88969,5.31194 0.0191,2.31323 9.7e-4,4.62686 -0.002,6.94023 -0.002,2.14923 -0.002,4.29845 -0.002,6.44766 0,2.05193 8e-5,4.10384 1.3e-4,6.15576 0.0534,1.82405 -0.0987,3.64035 -1.12303,5.11705 -3.50717,4.24007 -13.80273,9.59573 -15.29172,10.54892 -1.49249,0.80952 -2.83029,1.80799 -4.45113,2.28382 -1.73051,0.3899 -3.5041,0.39748 -5.26227,0.41827 -1.70803,0.21949 -3.0867,-0.79745 -4.59827,-1.44939 -0.76344,-0.10246 -1.23248,0.26876 -1.80292,0.76471 3.70196,-2.33311 7.33774,-4.80186 11.10586,-6.99931 0.27878,-0.16258 -0.42018,0.53329 -0.55845,0.84838 -0.22261,0.50726 -0.34239,1.06299 -0.51358,1.5945 -0.68707,2.43647 -1.17758,4.93099 -1.64501,7.4285 0,0 -12.23237,6.55099 -12.23237,6.55099 v 0 c 0.6016,-2.49044 1.02581,-5.02864 1.65251,-7.51309 0.0802,-0.39153 0.59789,-3.01214 0.6829,-3.07707 2.60868,-1.99292 9.34261,-9.97198 14.67727,-8.06839 1.38086,0.67302 2.70381,1.1688 4.24804,0.95324 1.69319,-0.0661 3.41539,-0.13983 5.02123,-0.80641 1.48555,-0.72392 2.86626,-1.68969 4.3355,-2.45672 -20.01806,12.9827 -12.27898,8.17611 -7.95978,4.94085 0.27514,-0.3379 0.63463,-0.58194 0.90853,-0.9211 0.66368,-0.8219 0.62997,-2.24048 0.65636,-3.25471 -2e-5,-2.05254 -1.9e-4,-4.10509 10e-4,-6.15763 0.002,-2.15345 0.006,-4.30693 0.0168,-6.46035 0.0109,-2.29656 0.0238,-4.59319 -0.003,-6.88968 -0.0237,-1.33821 0.0398,-2.78658 -0.34656,-4.06589 -0.0597,0.15353 -0.37841,0.50229 -0.24832,0.41882 18.87442,-12.10916 13.57511,-9.57605 9.68849,-6.01273 -1.57468,1.92403 0.71681,-0.9437 -0.90649,1.34341 -0.79914,1.12593 -2.05044,1.83601 -2.99448,2.78733 -0.69599,0.68924 -1.34204,1.4411 -2.05549,2.10777 -5.02502,4.69561 -11.04538,8.13021 -17.18966,10.65105 0,0 10.73489,-9.37047 10.73489,-9.37047 z"
       inkscape:connector-curvature="0"
       style="stroke-width:0.3397083" />
    <path
       id="path6058"
       d="m 135.41164,180.22024 c 2.37404,0.93255 4.47092,2.32414 6.44294,4.0329 1.28817,1.25579 1.90549,3.06359 2.68297,4.71552 0.54812,0.80454 1.11643,3.99106 2.25252,3.77343 3.10628,-4.04818 0.22084,-0.18804 -10.90527,6.45612 -0.27722,0.16553 0.52313,-0.39273 0.75938,-0.62414 0.76822,-0.75243 1.28621,-1.70257 1.82804,-2.65295 0.85852,-1.61818 1.77758,-3.1688 2.97736,-4.49451 1.1945,-1.07883 2.24748,-2.35543 3.25563,-3.64794 0.41257,0.11022 1.24076,-2.06582 1.41296,-2.15641 12.69873,-6.68037 11.36866,-11.19079 12.71925,-5.37124 0.22648,2.05786 0.1571,4.1405 0.13931,6.20934 0.0163,2.41692 -0.42,4.79577 -0.67604,7.18729 -0.21073,2.08373 -0.2534,4.18125 -0.27938,6.27593 -0.013,2.35315 -0.0284,4.70629 -0.0296,7.0595 0.082,2.44629 -0.351,4.85755 -0.61124,7.27561 -0.24076,2.36944 -0.25584,4.75675 -0.29235,7.13806 0.22175,2.5293 0.37071,5.0935 0.79975,7.59236 0.42024,1.40323 1.70209,2.05895 2.89701,2.48917 1.57019,0.39926 3.19346,0.39195 4.79545,0.41366 0.44853,0.002 1.22229,0.0886 1.65343,-0.20775 0.21754,-0.14957 0.7235,-0.78556 0.49923,-0.64889 -3.74537,2.28256 -7.40233,4.74099 -11.1035,7.11148 0,0 12.59002,-5.91625 12.59002,-5.91625 v 0 c -6.77471,4.68918 -8.59573,8.80559 -14.69315,8.57247 -1.72161,-0.0659 -3.47671,-0.1353 -5.10068,-0.84627 -1.55924,-0.82575 -3.00114,-1.87631 -3.55062,-3.80681 -0.4806,-2.59062 -0.53274,-5.26694 -0.91424,-7.87934 0.003,-2.42461 0.0512,-4.85034 0.20986,-7.26921 0.23245,-2.38099 0.72467,-4.73965 0.71364,-7.13807 -0.004,-2.35092 -0.0334,-4.70177 -0.0194,-7.05271 0.0174,-2.14242 0.0443,-4.28774 0.2311,-6.42185 0.22777,-2.35061 0.70182,-4.6791 0.72972,-7.04251 0.0195,-1.9655 0.0695,-3.93573 -0.0521,-5.89822 -0.51475,-5.56476 -0.17339,-0.35605 12.04036,-7.66611 0.0957,-0.0573 -0.22786,0.0348 -0.30911,0.11538 -0.55015,0.54447 -0.58933,1.51802 -1.19141,2.02623 -1.14119,1.19145 -2.06874,2.62081 -3.19112,3.83043 -1.40456,0.99064 -2.38525,2.45664 -3.17062,4.07267 -3.41209,5.53266 -7.3314,14.3965 -15.58357,11.35821 -1.35455,-1.1684 -1.92987,-2.97886 -2.6827,-4.64525 -0.70655,-1.45498 -1.19827,-3.10031 -2.3617,-4.19251 -1.88089,-1.65824 -3.99326,-2.83389 -6.27078,-3.68643 0,0 11.35871,-8.44034 11.35871,-8.44034 z"
       inkscape:connector-curvature="0"
       style="stroke-width:0.3397083" />
  </g>
</svg>
